<svg width="178" height="35" viewBox="0 0 178 35" fill="none" xmlns="http://www.w3.org/2000/svg">
<path d="M46.235 28.3C45.155 28.3 44.1 28.12 43.07 27.76C42.04 27.4 41.16 26.825 40.43 26.035C39.7 25.245 39.23 24.215 39.02 22.945H43.4C43.53 23.475 43.765 23.88 44.105 24.16C44.445 24.44 44.805 24.63 45.185 24.73C45.575 24.83 45.915 24.88 46.205 24.88C46.945 24.88 47.545 24.775 48.005 24.565C48.465 24.355 48.695 24.035 48.695 23.605C48.695 23.245 48.55 22.965 48.26 22.765C47.98 22.555 47.485 22.39 46.775 22.27L44.27 21.805C42.84 21.535 41.69 21.04 40.82 20.32C39.95 19.59 39.51 18.56 39.5 17.23C39.49 16.28 39.745 15.425 40.265 14.665C40.785 13.905 41.55 13.305 42.56 12.865C43.57 12.415 44.805 12.19 46.265 12.19C48.285 12.19 49.89 12.63 51.08 13.51C52.27 14.39 52.87 15.605 52.88 17.155H48.68C48.57 16.625 48.285 16.225 47.825 15.955C47.375 15.675 46.835 15.535 46.205 15.535C45.565 15.535 45.025 15.645 44.585 15.865C44.155 16.075 43.94 16.395 43.94 16.825C43.94 17.155 44.13 17.42 44.51 17.62C44.89 17.82 45.495 18 46.325 18.16L48.59 18.625C49.52 18.855 50.275 19.165 50.855 19.555C51.435 19.935 51.88 20.35 52.19 20.8C52.51 21.25 52.725 21.7 52.835 22.15C52.955 22.59 53.015 22.98 53.015 23.32C53.015 24.39 52.72 25.295 52.13 26.035C51.55 26.775 50.745 27.34 49.715 27.73C48.695 28.11 47.535 28.3 46.235 28.3ZM55.779 28V12.49H60.819V14.665C61.039 14.305 61.329 13.95 61.689 13.6C62.059 13.25 62.524 12.96 63.084 12.73C63.654 12.5 64.344 12.385 65.154 12.385C66.084 12.385 66.959 12.565 67.779 12.925C68.609 13.285 69.284 13.86 69.804 14.65C70.324 15.43 70.584 16.455 70.584 17.725V28H65.454V18.4C65.454 17.72 65.234 17.21 64.794 16.87C64.354 16.52 63.849 16.345 63.279 16.345C62.899 16.345 62.524 16.42 62.154 16.57C61.784 16.71 61.479 16.925 61.239 17.215C60.999 17.495 60.879 17.85 60.879 18.28V28H55.779ZM78.3751 28.3C77.3951 28.3 76.5001 28.115 75.6901 27.745C74.8901 27.365 74.2551 26.815 73.7851 26.095C73.3151 25.375 73.0801 24.495 73.0801 23.455C73.0801 21.765 73.7301 20.465 75.0301 19.555C76.3301 18.645 78.3701 18.185 81.1501 18.175L82.7251 18.16V17.365C82.7251 16.755 82.5501 16.3 82.2001 16C81.8601 15.69 81.3251 15.54 80.5951 15.55C80.0751 15.56 79.5501 15.685 79.0201 15.925C78.4901 16.155 78.1151 16.585 77.8951 17.215H73.7101C73.7701 16.045 74.1151 15.09 74.7451 14.35C75.3751 13.61 76.2151 13.065 77.2651 12.715C78.3251 12.365 79.5101 12.19 80.8201 12.19C82.5201 12.19 83.8651 12.395 84.8551 12.805C85.8451 13.205 86.5501 13.77 86.9701 14.5C87.4001 15.22 87.6151 16.07 87.6151 17.05V28H83.3701L82.9351 25.435C82.4451 26.525 81.8301 27.275 81.0901 27.685C80.3501 28.095 79.4451 28.3 78.3751 28.3ZM80.1301 25.015C80.4701 25.015 80.7951 24.955 81.1051 24.835C81.4151 24.715 81.6901 24.55 81.9301 24.34C82.1701 24.12 82.3601 23.88 82.5001 23.62C82.6401 23.36 82.7151 23.08 82.7251 22.78V20.665L81.4651 20.68C80.9451 20.68 80.4051 20.75 79.8451 20.89C79.2951 21.03 78.8301 21.265 78.4501 21.595C78.0701 21.915 77.8801 22.36 77.8801 22.93C77.8801 23.58 78.1051 24.09 78.5551 24.46C79.0051 24.83 79.5301 25.015 80.1301 25.015ZM90.818 32.83V12.49H95.933L95.948 14.5C96.208 14.12 96.513 13.785 96.863 13.495C97.223 13.205 97.608 12.965 98.018 12.775C98.428 12.585 98.853 12.44 99.293 12.34C99.743 12.24 100.188 12.19 100.628 12.19C101.748 12.19 102.748 12.475 103.628 13.045C104.508 13.615 105.203 14.49 105.713 15.67C106.223 16.85 106.478 18.345 106.478 20.155C106.478 22.085 106.188 23.65 105.608 24.85C105.028 26.04 104.253 26.915 103.283 27.475C102.323 28.025 101.263 28.3 100.103 28.3C99.693 28.3 99.288 28.245 98.888 28.135C98.488 28.035 98.108 27.88 97.748 27.67C97.388 27.46 97.053 27.21 96.743 26.92C96.433 26.62 96.158 26.275 95.918 25.885V32.83H90.818ZM98.813 24.61C99.613 24.61 100.298 24.26 100.868 23.56C101.438 22.86 101.723 21.735 101.723 20.185C101.723 18.805 101.443 17.735 100.883 16.975C100.333 16.215 99.643 15.835 98.813 15.835C97.823 15.835 97.093 16.26 96.623 17.11C96.153 17.95 95.918 18.975 95.918 20.185C95.918 20.925 96.018 21.635 96.218 22.315C96.428 22.995 96.743 23.55 97.163 23.98C97.593 24.4 98.143 24.61 98.813 24.61ZM116.162 28.3C114.702 28.3 113.392 27.975 112.232 27.325C111.082 26.665 110.172 25.735 109.502 24.535C108.842 23.335 108.512 21.93 108.512 20.32C108.512 18.71 108.837 17.3 109.487 16.09C110.137 14.87 111.037 13.915 112.187 13.225C113.337 12.535 114.662 12.19 116.162 12.19C117.542 12.19 118.717 12.48 119.687 13.06C120.667 13.63 121.422 14.395 121.952 15.355C122.492 16.305 122.787 17.345 122.837 18.475H118.652C118.602 18.125 118.487 17.76 118.307 17.38C118.127 17 117.867 16.68 117.527 16.42C117.197 16.15 116.757 16.015 116.207 16.015C115.317 16.015 114.597 16.37 114.047 17.08C113.507 17.78 113.237 18.84 113.237 20.26C113.237 21.66 113.512 22.755 114.062 23.545C114.622 24.335 115.367 24.73 116.297 24.73C116.837 24.73 117.277 24.585 117.617 24.295C117.957 24.005 118.212 23.67 118.382 23.29C118.552 22.91 118.657 22.575 118.697 22.285H122.777C122.747 23.375 122.457 24.375 121.907 25.285C121.367 26.195 120.607 26.925 119.627 27.475C118.657 28.025 117.502 28.3 116.162 28.3ZM132.628 28.3C131.068 28.3 129.713 27.97 128.563 27.31C127.413 26.64 126.523 25.71 125.893 24.52C125.263 23.32 124.948 21.925 124.948 20.335C124.948 18.715 125.268 17.295 125.908 16.075C126.558 14.845 127.458 13.89 128.608 13.21C129.768 12.53 131.118 12.19 132.658 12.19C134.228 12.19 135.583 12.535 136.723 13.225C137.873 13.905 138.758 14.86 139.378 16.09C140.008 17.31 140.323 18.725 140.323 20.335C140.323 21.885 140.013 23.26 139.393 24.46C138.773 25.65 137.888 26.59 136.738 27.28C135.588 27.96 134.218 28.3 132.628 28.3ZM132.658 24.55C133.348 24.55 133.888 24.335 134.278 23.905C134.668 23.465 134.943 22.91 135.103 22.24C135.263 21.56 135.343 20.87 135.343 20.17C135.343 19.48 135.268 18.805 135.118 18.145C134.968 17.485 134.698 16.945 134.308 16.525C133.918 16.095 133.368 15.88 132.658 15.88C131.948 15.88 131.393 16.09 130.993 16.51C130.603 16.92 130.328 17.455 130.168 18.115C130.008 18.765 129.928 19.45 129.928 20.17C129.928 20.85 130.003 21.53 130.153 22.21C130.303 22.88 130.573 23.44 130.963 23.89C131.363 24.33 131.928 24.55 132.658 24.55ZM148.98 28.3C146.87 28.3 145.235 27.57 144.075 26.11C142.925 24.65 142.35 22.665 142.35 20.155C142.35 18.525 142.585 17.115 143.055 15.925C143.535 14.735 144.23 13.815 145.14 13.165C146.05 12.515 147.155 12.19 148.455 12.19C148.925 12.19 149.38 12.24 149.82 12.34C150.26 12.44 150.675 12.585 151.065 12.775C151.465 12.955 151.82 13.185 152.13 13.465C152.45 13.735 152.715 14.055 152.925 14.425V5.71H158.055V28H154.41L153.81 24.82C153.65 25.3 153.435 25.755 153.165 26.185C152.905 26.605 152.58 26.975 152.19 27.295C151.81 27.605 151.355 27.85 150.825 28.03C150.295 28.21 149.68 28.3 148.98 28.3ZM150.15 24.685C151.04 24.685 151.725 24.345 152.205 23.665C152.685 22.985 152.925 21.805 152.925 20.125C152.925 19.135 152.815 18.325 152.595 17.695C152.385 17.055 152.075 16.585 151.665 16.285C151.265 15.985 150.765 15.835 150.165 15.835C149.355 15.835 148.675 16.16 148.125 16.81C147.585 17.45 147.315 18.555 147.315 20.125C147.315 21.745 147.58 22.91 148.11 23.62C148.64 24.33 149.32 24.685 150.15 24.685ZM168.789 28.3C167.219 28.3 165.834 27.975 164.634 27.325C163.444 26.675 162.514 25.76 161.844 24.58C161.184 23.4 160.854 22.015 160.854 20.425C160.854 18.915 161.154 17.54 161.754 16.3C162.364 15.05 163.244 14.055 164.394 13.315C165.544 12.565 166.929 12.19 168.549 12.19C170.189 12.19 171.559 12.535 172.659 13.225C173.759 13.905 174.584 14.845 175.134 16.045C175.694 17.235 175.974 18.6 175.974 20.14V21.415H165.879C165.869 22.125 165.979 22.725 166.209 23.215C166.439 23.695 166.764 24.06 167.184 24.31C167.604 24.56 168.094 24.685 168.654 24.685C169.294 24.685 169.859 24.555 170.349 24.295C170.849 24.025 171.214 23.56 171.444 22.9H176.004C175.834 24.03 175.384 25 174.654 25.81C173.934 26.61 173.054 27.225 172.014 27.655C170.974 28.085 169.899 28.3 168.789 28.3ZM165.864 18.475H171.234C171.234 17.965 171.134 17.5 170.934 17.08C170.734 16.65 170.434 16.31 170.034 16.06C169.644 15.81 169.149 15.685 168.549 15.685C168.019 15.685 167.549 15.82 167.139 16.09C166.739 16.35 166.424 16.695 166.194 17.125C165.974 17.545 165.864 17.995 165.864 18.475Z" fill="#ffffff"/>
<path fill-rule="evenodd" clip-rule="evenodd" d="M30 14.1175V24.325C30 25.7032 30 26.8916 29.877 27.8436C29.7435 28.8625 29.4465 29.8409 28.6815 30.6327C27.9165 31.426 26.9745 31.7356 25.9905 31.8724C25.074 32 23.928 32 22.5975 32H7.401C6.0705 32 4.926 32 4.008 31.8724C3.024 31.7356 2.082 31.426 1.317 30.6327C0.552001 29.8394 0.255001 28.8625 0.123001 27.8436C8.15839e-07 26.8916 7.9245e-07 25.7032 7.9245e-07 24.325V14.1175C7.9245e-07 13.4004 -0.00149904 12.7813 0.126001 12.2353C0.320454 11.4019 0.732561 10.6402 1.31708 10.0337C1.90161 9.42727 2.63595 8.99956 3.4395 8.79753C3.9675 8.66686 4.5645 8.66686 5.2545 8.66686H5.4075C5.9265 8.66686 6.0315 8.6622 6.117 8.64975C6.45896 8.59645 6.77266 8.42225 7.005 8.15665C7.062 8.09131 7.1235 8.00265 7.4115 7.55465L7.752 7.02577L7.854 6.8671C8.3445 6.10022 8.778 5.42356 9.3945 4.94134C9.76659 4.65031 10.18 4.42098 10.62 4.26157C11.3475 3.99713 12.132 3.99868 13.02 4.00024H16.98C17.868 4.00024 18.651 3.99713 19.38 4.26157C19.82 4.42098 20.2334 4.65031 20.6055 4.94134C21.2205 5.42356 21.654 6.10022 22.146 6.8671L22.248 7.02577L22.587 7.55465C22.875 8.00265 22.9365 8.09131 22.9935 8.15665C23.2262 8.42256 23.5405 8.59679 23.883 8.64975C23.967 8.6622 24.072 8.66686 24.591 8.66686H24.744C25.434 8.66686 26.031 8.66686 26.559 8.79753C27.3628 8.99931 28.0975 9.42691 28.6823 10.0334C29.2671 10.6398 29.6794 11.4017 29.874 12.2353C30 12.7813 30 13.4004 30 14.1175ZM9 19.5557C9 17.9054 9.63214 16.3228 10.7574 15.1559C11.8826 13.989 13.4087 13.3335 15 13.3335C16.5913 13.3335 18.1174 13.989 19.2426 15.1559C20.3679 16.3228 21 17.9054 21 19.5557C21 21.2059 20.3679 22.7885 19.2426 23.9554C18.1174 25.1223 16.5913 25.7778 15 25.7778C13.4087 25.7778 11.8826 25.1223 10.7574 23.9554C9.63214 22.7885 9 21.2059 9 19.5557Z" fill="url(#paint0_linear_3_7)"/>
<defs>
<linearGradient id="paint0_linear_3_7" x1="0" y1="18" x2="30" y2="18" gradientUnits="userSpaceOnUse">
<stop stop-color="#31D35C"/>
<stop offset="1" stop-color="#2BB7DA"/>
</linearGradient>
</defs>
</svg>
